<mxfile host="app.diagrams.net" modified="2024-01-30T04:36:53.990Z" agent="Mozilla/5.0 (Windows NT 10.0; Win64; x64) AppleWebKit/537.36 (KHTML, like Gecko) Chrome/121.0.0.0 Safari/537.36" etag="nJLjIL5bVYD9mwmBJ03_" version="23.0.2" type="google">
  <diagram name="Page-1" id="9wjcHK0UEsryjtmTAxiu">
    <mxGraphModel grid="1" page="1" gridSize="10" guides="1" tooltips="1" connect="1" arrows="1" fold="1" pageScale="1" pageWidth="850" pageHeight="1100" math="0" shadow="0">
      <root>
        <mxCell id="0" />
        <mxCell id="1" parent="0" />
        <mxCell id="XpcWEPTf3nFZ2iSUIoDG-2" value="&lt;b&gt;USER&lt;/b&gt;" style="html=1;outlineConnect=0;whiteSpace=wrap;fillColor=#ffff99;verticalLabelPosition=bottom;verticalAlign=top;align=center;shape=mxgraph.archimate3.actor;" vertex="1" parent="1">
          <mxGeometry x="60" y="500" width="50" height="100" as="geometry" />
        </mxCell>
        <mxCell id="XpcWEPTf3nFZ2iSUIoDG-3" value="&lt;b&gt;ADMIN&lt;/b&gt;" style="html=1;outlineConnect=0;whiteSpace=wrap;fillColor=#ffff99;verticalLabelPosition=bottom;verticalAlign=top;align=center;shape=mxgraph.archimate3.actor;" vertex="1" parent="1">
          <mxGeometry x="717.5" y="790" width="50" height="90" as="geometry" />
        </mxCell>
        <mxCell id="XpcWEPTf3nFZ2iSUIoDG-4" value="&lt;b&gt;DATABASE&lt;/b&gt;" style="html=1;outlineConnect=0;whiteSpace=wrap;fillColor=#ffff99;verticalLabelPosition=bottom;verticalAlign=top;align=center;shape=mxgraph.archimate3.actor;" vertex="1" parent="1">
          <mxGeometry x="752.5" y="310" width="50" height="90" as="geometry" />
        </mxCell>
        <mxCell id="XpcWEPTf3nFZ2iSUIoDG-5" value="&lt;b&gt;SERVER&lt;/b&gt;" style="html=1;outlineConnect=0;whiteSpace=wrap;fillColor=#ffff99;verticalLabelPosition=bottom;verticalAlign=top;align=center;shape=mxgraph.archimate3.actor;" vertex="1" parent="1">
          <mxGeometry x="710" y="500" width="50" height="100" as="geometry" />
        </mxCell>
        <mxCell id="XpcWEPTf3nFZ2iSUIoDG-7" value="Login" style="ellipse;whiteSpace=wrap;html=1;" vertex="1" parent="1">
          <mxGeometry x="180" y="510" width="120" height="80" as="geometry" />
        </mxCell>
        <mxCell id="XpcWEPTf3nFZ2iSUIoDG-8" value="Register" style="ellipse;whiteSpace=wrap;html=1;" vertex="1" parent="1">
          <mxGeometry x="350" y="950" width="120" height="80" as="geometry" />
        </mxCell>
        <mxCell id="XpcWEPTf3nFZ2iSUIoDG-9" value="Moderate" style="ellipse;whiteSpace=wrap;html=1;" vertex="1" parent="1">
          <mxGeometry x="700" y="690" width="120" height="80" as="geometry" />
        </mxCell>
        <mxCell id="XpcWEPTf3nFZ2iSUIoDG-11" value="Messaging" style="ellipse;whiteSpace=wrap;html=1;" vertex="1" parent="1">
          <mxGeometry x="350" y="700" width="120" height="80" as="geometry" />
        </mxCell>
        <mxCell id="XpcWEPTf3nFZ2iSUIoDG-15" value="" style="endArrow=none;html=1;rounded=0;entryX=0;entryY=0.5;entryDx=0;entryDy=0;" edge="1" parent="1" source="XpcWEPTf3nFZ2iSUIoDG-2" target="XpcWEPTf3nFZ2iSUIoDG-8">
          <mxGeometry width="50" height="50" relative="1" as="geometry">
            <mxPoint x="260" y="520" as="sourcePoint" />
            <mxPoint x="310" y="470" as="targetPoint" />
          </mxGeometry>
        </mxCell>
        <mxCell id="XpcWEPTf3nFZ2iSUIoDG-41" value="" style="endArrow=none;html=1;rounded=0;" edge="1" parent="1" source="XpcWEPTf3nFZ2iSUIoDG-2" target="XpcWEPTf3nFZ2iSUIoDG-7">
          <mxGeometry width="50" height="50" relative="1" as="geometry">
            <mxPoint x="520" y="670" as="sourcePoint" />
            <mxPoint x="570" y="620" as="targetPoint" />
          </mxGeometry>
        </mxCell>
        <mxCell id="XpcWEPTf3nFZ2iSUIoDG-42" value="" style="endArrow=classic;html=1;rounded=0;" edge="1" parent="1" source="XpcWEPTf3nFZ2iSUIoDG-5" target="XpcWEPTf3nFZ2iSUIoDG-7">
          <mxGeometry width="50" height="50" relative="1" as="geometry">
            <mxPoint x="520" y="670" as="sourcePoint" />
            <mxPoint x="570" y="620" as="targetPoint" />
          </mxGeometry>
        </mxCell>
        <mxCell id="XpcWEPTf3nFZ2iSUIoDG-45" value="" style="endArrow=none;html=1;rounded=0;" edge="1" parent="1" source="XpcWEPTf3nFZ2iSUIoDG-7" target="XpcWEPTf3nFZ2iSUIoDG-11">
          <mxGeometry width="50" height="50" relative="1" as="geometry">
            <mxPoint x="520" y="670" as="sourcePoint" />
            <mxPoint x="570" y="620" as="targetPoint" />
          </mxGeometry>
        </mxCell>
        <mxCell id="XpcWEPTf3nFZ2iSUIoDG-47" value="View Post" style="ellipse;whiteSpace=wrap;html=1;" vertex="1" parent="1">
          <mxGeometry x="400" y="70" width="120" height="80" as="geometry" />
        </mxCell>
        <mxCell id="XpcWEPTf3nFZ2iSUIoDG-48" value="" style="endArrow=none;html=1;rounded=0;" edge="1" parent="1" source="XpcWEPTf3nFZ2iSUIoDG-7" target="XpcWEPTf3nFZ2iSUIoDG-47">
          <mxGeometry width="50" height="50" relative="1" as="geometry">
            <mxPoint x="520" y="670" as="sourcePoint" />
            <mxPoint x="570" y="620" as="targetPoint" />
          </mxGeometry>
        </mxCell>
        <mxCell id="XpcWEPTf3nFZ2iSUIoDG-51" value="Comment" style="ellipse;whiteSpace=wrap;html=1;" vertex="1" parent="1">
          <mxGeometry x="630" y="120" width="120" height="80" as="geometry" />
        </mxCell>
        <mxCell id="XpcWEPTf3nFZ2iSUIoDG-52" value="Like" style="ellipse;whiteSpace=wrap;html=1;" vertex="1" parent="1">
          <mxGeometry x="630" y="10" width="120" height="80" as="geometry" />
        </mxCell>
        <mxCell id="XpcWEPTf3nFZ2iSUIoDG-53" value="Edit Post" style="ellipse;whiteSpace=wrap;html=1;" vertex="1" parent="1">
          <mxGeometry x="350" y="830" width="120" height="80" as="geometry" />
        </mxCell>
        <mxCell id="XpcWEPTf3nFZ2iSUIoDG-57" value="&lt;font style=&quot;font-size: 13px;&quot;&gt;&amp;lt;&amp;lt;include&amp;gt;&amp;gt;&lt;/font&gt;" style="edgeLabel;html=1;align=center;verticalAlign=middle;resizable=0;points=[];" connectable="0" vertex="1" parent="1">
          <mxGeometry x="802.5028837455626" y="460.0021177471044" as="geometry" />
        </mxCell>
        <mxCell id="XpcWEPTf3nFZ2iSUIoDG-61" value="" style="edgeStyle=elbowEdgeStyle;fontSize=12;html=1;endFill=0;startFill=0;endSize=6;startSize=6;dashed=1;dashPattern=1 4;endArrow=openThin;startArrow=none;rounded=0;" edge="1" parent="1" source="XpcWEPTf3nFZ2iSUIoDG-47" target="XpcWEPTf3nFZ2iSUIoDG-52">
          <mxGeometry width="160" relative="1" as="geometry">
            <mxPoint x="660" y="370" as="sourcePoint" />
            <mxPoint x="820" y="370" as="targetPoint" />
          </mxGeometry>
        </mxCell>
        <mxCell id="XpcWEPTf3nFZ2iSUIoDG-62" value="" style="edgeStyle=elbowEdgeStyle;fontSize=12;html=1;endFill=0;startFill=0;endSize=6;startSize=6;dashed=1;dashPattern=1 4;endArrow=openThin;startArrow=none;rounded=0;exitX=1;exitY=1;exitDx=0;exitDy=0;" edge="1" parent="1" source="XpcWEPTf3nFZ2iSUIoDG-47" target="XpcWEPTf3nFZ2iSUIoDG-51">
          <mxGeometry width="160" relative="1" as="geometry">
            <mxPoint x="660" y="370" as="sourcePoint" />
            <mxPoint x="820" y="370" as="targetPoint" />
          </mxGeometry>
        </mxCell>
        <mxCell id="XpcWEPTf3nFZ2iSUIoDG-63" value="&lt;font style=&quot;font-size: 13px;&quot;&gt;&amp;lt;&amp;lt;include&amp;gt;&amp;gt;&lt;/font&gt;" style="edgeLabel;html=1;align=center;verticalAlign=middle;resizable=0;points=[];" connectable="0" vertex="1" parent="1">
          <mxGeometry x="620.0028837455626" y="190.00211774710442" as="geometry">
            <mxPoint x="-54" y="-154" as="offset" />
          </mxGeometry>
        </mxCell>
        <mxCell id="XpcWEPTf3nFZ2iSUIoDG-65" value="&lt;font style=&quot;font-size: 13px;&quot;&gt;&amp;lt;&amp;lt;include&amp;gt;&amp;gt;&lt;/font&gt;" style="edgeLabel;html=1;align=center;verticalAlign=middle;resizable=0;points=[];" connectable="0" vertex="1" parent="1">
          <mxGeometry x="630.0028837455626" y="330.0021177471044" as="geometry">
            <mxPoint x="-54" y="-154" as="offset" />
          </mxGeometry>
        </mxCell>
        <mxCell id="XpcWEPTf3nFZ2iSUIoDG-66" value="" style="endArrow=none;html=1;rounded=0;" edge="1" parent="1" source="XpcWEPTf3nFZ2iSUIoDG-7" target="XpcWEPTf3nFZ2iSUIoDG-53">
          <mxGeometry width="50" height="50" relative="1" as="geometry">
            <mxPoint x="340" y="570" as="sourcePoint" />
            <mxPoint x="390" y="520" as="targetPoint" />
          </mxGeometry>
        </mxCell>
        <mxCell id="XpcWEPTf3nFZ2iSUIoDG-67" value="View Profile" style="ellipse;whiteSpace=wrap;html=1;" vertex="1" parent="1">
          <mxGeometry x="400" y="210" width="120" height="80" as="geometry" />
        </mxCell>
        <mxCell id="XpcWEPTf3nFZ2iSUIoDG-68" value="" style="endArrow=none;html=1;rounded=0;" edge="1" parent="1" source="XpcWEPTf3nFZ2iSUIoDG-7" target="XpcWEPTf3nFZ2iSUIoDG-67">
          <mxGeometry width="50" height="50" relative="1" as="geometry">
            <mxPoint x="380" y="500" as="sourcePoint" />
            <mxPoint x="430" y="450" as="targetPoint" />
          </mxGeometry>
        </mxCell>
        <mxCell id="XpcWEPTf3nFZ2iSUIoDG-69" value="Edit Profile" style="ellipse;whiteSpace=wrap;html=1;" vertex="1" parent="1">
          <mxGeometry x="400" y="330" width="120" height="80" as="geometry" />
        </mxCell>
        <mxCell id="XpcWEPTf3nFZ2iSUIoDG-70" value="" style="endArrow=none;html=1;rounded=0;" edge="1" parent="1" source="XpcWEPTf3nFZ2iSUIoDG-7" target="XpcWEPTf3nFZ2iSUIoDG-69">
          <mxGeometry width="50" height="50" relative="1" as="geometry">
            <mxPoint x="490" y="500" as="sourcePoint" />
            <mxPoint x="540" y="450" as="targetPoint" />
          </mxGeometry>
        </mxCell>
        <mxCell id="XpcWEPTf3nFZ2iSUIoDG-71" value="" style="endArrow=classic;html=1;rounded=0;" edge="1" parent="1" source="XpcWEPTf3nFZ2iSUIoDG-5" target="XpcWEPTf3nFZ2iSUIoDG-8">
          <mxGeometry width="50" height="50" relative="1" as="geometry">
            <mxPoint x="590" y="680" as="sourcePoint" />
            <mxPoint x="640" y="630" as="targetPoint" />
          </mxGeometry>
        </mxCell>
        <mxCell id="XpcWEPTf3nFZ2iSUIoDG-73" value="" style="endArrow=none;html=1;rounded=0;" edge="1" parent="1" source="XpcWEPTf3nFZ2iSUIoDG-5" target="XpcWEPTf3nFZ2iSUIoDG-9">
          <mxGeometry width="50" height="50" relative="1" as="geometry">
            <mxPoint x="590" y="680" as="sourcePoint" />
            <mxPoint x="640" y="630" as="targetPoint" />
          </mxGeometry>
        </mxCell>
        <mxCell id="XpcWEPTf3nFZ2iSUIoDG-74" value="" style="endArrow=none;html=1;rounded=0;" edge="1" parent="1" source="XpcWEPTf3nFZ2iSUIoDG-75" target="XpcWEPTf3nFZ2iSUIoDG-3">
          <mxGeometry width="50" height="50" relative="1" as="geometry">
            <mxPoint x="590" y="550" as="sourcePoint" />
            <mxPoint x="640" y="500" as="targetPoint" />
          </mxGeometry>
        </mxCell>
        <mxCell id="XpcWEPTf3nFZ2iSUIoDG-75" value="Admin Login" style="ellipse;whiteSpace=wrap;html=1;" vertex="1" parent="1">
          <mxGeometry x="520" y="870" width="120" height="80" as="geometry" />
        </mxCell>
        <mxCell id="XpcWEPTf3nFZ2iSUIoDG-79" value="" style="endArrow=classic;html=1;rounded=0;" edge="1" parent="1" source="XpcWEPTf3nFZ2iSUIoDG-5" target="XpcWEPTf3nFZ2iSUIoDG-75">
          <mxGeometry width="50" height="50" relative="1" as="geometry">
            <mxPoint x="640" y="460" as="sourcePoint" />
            <mxPoint x="590" y="500" as="targetPoint" />
          </mxGeometry>
        </mxCell>
        <mxCell id="XpcWEPTf3nFZ2iSUIoDG-80" value="" style="endArrow=classic;html=1;rounded=0;" edge="1" parent="1" source="XpcWEPTf3nFZ2iSUIoDG-75" target="XpcWEPTf3nFZ2iSUIoDG-9">
          <mxGeometry width="50" height="50" relative="1" as="geometry">
            <mxPoint x="590" y="510" as="sourcePoint" />
            <mxPoint x="640" y="460" as="targetPoint" />
          </mxGeometry>
        </mxCell>
        <mxCell id="XpcWEPTf3nFZ2iSUIoDG-81" value="" style="edgeStyle=elbowEdgeStyle;fontSize=12;html=1;endFill=0;startFill=0;endSize=6;startSize=6;dashed=1;dashPattern=1 4;endArrow=openThin;startArrow=none;rounded=0;" edge="1" parent="1" source="XpcWEPTf3nFZ2iSUIoDG-5" target="XpcWEPTf3nFZ2iSUIoDG-4">
          <mxGeometry width="160" relative="1" as="geometry">
            <mxPoint x="540" y="490" as="sourcePoint" />
            <mxPoint x="700" y="490" as="targetPoint" />
          </mxGeometry>
        </mxCell>
        <mxCell id="XpcWEPTf3nFZ2iSUIoDG-82" value="" style="endArrow=classic;html=1;rounded=0;" edge="1" parent="1" source="XpcWEPTf3nFZ2iSUIoDG-5" target="XpcWEPTf3nFZ2iSUIoDG-11">
          <mxGeometry width="50" height="50" relative="1" as="geometry">
            <mxPoint x="590" y="670" as="sourcePoint" />
            <mxPoint x="640" y="620" as="targetPoint" />
          </mxGeometry>
        </mxCell>
        <mxCell id="XpcWEPTf3nFZ2iSUIoDG-83" value="" style="endArrow=classic;html=1;rounded=0;" edge="1" parent="1" source="XpcWEPTf3nFZ2iSUIoDG-5" target="XpcWEPTf3nFZ2iSUIoDG-53">
          <mxGeometry width="50" height="50" relative="1" as="geometry">
            <mxPoint x="590" y="670" as="sourcePoint" />
            <mxPoint x="640" y="620" as="targetPoint" />
          </mxGeometry>
        </mxCell>
        <mxCell id="XpcWEPTf3nFZ2iSUIoDG-84" value="" style="endArrow=classic;html=1;rounded=0;" edge="1" parent="1" source="XpcWEPTf3nFZ2iSUIoDG-5" target="XpcWEPTf3nFZ2iSUIoDG-69">
          <mxGeometry width="50" height="50" relative="1" as="geometry">
            <mxPoint x="590" y="360" as="sourcePoint" />
            <mxPoint x="640" y="310" as="targetPoint" />
          </mxGeometry>
        </mxCell>
        <mxCell id="XpcWEPTf3nFZ2iSUIoDG-85" value="" style="endArrow=classic;html=1;rounded=0;" edge="1" parent="1" source="XpcWEPTf3nFZ2iSUIoDG-5" target="XpcWEPTf3nFZ2iSUIoDG-67">
          <mxGeometry width="50" height="50" relative="1" as="geometry">
            <mxPoint x="590" y="360" as="sourcePoint" />
            <mxPoint x="640" y="310" as="targetPoint" />
          </mxGeometry>
        </mxCell>
        <mxCell id="XpcWEPTf3nFZ2iSUIoDG-86" value="" style="endArrow=classic;html=1;rounded=0;" edge="1" parent="1" source="XpcWEPTf3nFZ2iSUIoDG-5" target="XpcWEPTf3nFZ2iSUIoDG-47">
          <mxGeometry width="50" height="50" relative="1" as="geometry">
            <mxPoint x="590" y="360" as="sourcePoint" />
            <mxPoint x="640" y="310" as="targetPoint" />
          </mxGeometry>
        </mxCell>
      </root>
    </mxGraphModel>
  </diagram>
</mxfile>
